<svg id="SvgjsSvg1029" width="288" height="288" xmlns="http://www.w3.org/2000/svg" version="1.1" xmlns:xlink="http://www.w3.org/1999/xlink" xmlns:svgjs="http://svgjs.com/svgjs"><defs id="SvgjsDefs1030"></defs><g id="SvgjsG1031"><svg xmlns="http://www.w3.org/2000/svg" fill-rule="evenodd" stroke-linejoin="round" stroke-miterlimit="2" clip-rule="evenodd" viewBox="0 0 512 512" width="288" height="288"><path d="M251,280.5L251,420.5C251,423.26 253.24,425.5 256,425.5C258.76,425.5 261,423.26 261,420.5L261,280.5C261,277.74 258.76,275.5 256,275.5C253.24,275.5 251,277.74 251,280.5ZM403,280.5L403,420.5C403,423.26 405.24,425.5 408,425.5C410.76,425.5 413,423.26 413,420.5L413,280.5C413,277.74 410.76,275.5 408,275.5C405.24,275.5 403,277.74 403,280.5ZM99,280.5L99,420.5C99,423.26 101.24,425.5 104,425.5C106.76,425.5 109,423.26 109,420.5L109,280.5C109,277.74 106.76,275.5 104,275.5C101.24,275.5 99,277.74 99,280.5ZM118,280.5L118,378.5C118,381.26 120.24,383.5 123,383.5C125.76,383.5 128,381.26 128,378.5L128,280.5C128,277.74 125.76,275.5 123,275.5C120.24,275.5 118,277.74 118,280.5ZM232,280.5L232,378.5C232,381.26 234.24,383.5 237,383.5C239.76,383.5 242,381.26 242,378.5L242,280.5C242,277.74 239.76,275.5 237,275.5C234.24,275.5 232,277.74 232,280.5ZM270,280.5L270,378.5C270,381.26 272.24,383.5 275,383.5C277.76,383.5 280,381.26 280,378.5L280,280.5C280,277.74 277.76,275.5 275,275.5C272.24,275.5 270,277.74 270,280.5ZM422,280.5L422,378.5C422,381.26 424.24,383.5 427,383.5C429.76,383.5 432,381.26 432,378.5L432,280.5C432,277.74 429.76,275.5 427,275.5C424.24,275.5 422,277.74 422,280.5ZM384,280.5L384,378.5C384,381.26 386.24,383.5 389,383.5C391.76,383.5 394,381.26 394,378.5L394,280.5C394,277.74 391.76,275.5 389,275.5C386.24,275.5 384,277.74 384,280.5ZM80,280.5L80,378.5C80,381.26 82.24,383.5 85,383.5C87.76,383.5 90,381.26 90,378.5L90,280.5C90,277.74 87.76,275.5 85,275.5C82.24,275.5 80,277.74 80,280.5ZM213,280.5L213,344.5C213,347.26 215.24,349.5 218,349.5C220.76,349.5 223,347.26 223,344.5L223,280.5C223,277.74 220.76,275.5 218,275.5C215.24,275.5 213,277.74 213,280.5ZM289,280.5L289,344.5C289,347.26 291.24,349.5 294,349.5C296.76,349.5 299,347.26 299,344.5L299,280.5C299,277.74 296.76,275.5 294,275.5C291.24,275.5 289,277.74 289,280.5ZM61,280.5L61,344.5C61,347.26 63.24,349.5 66,349.5C68.76,349.5 71,347.26 71,344.5L71,280.5C71,277.74 68.76,275.5 66,275.5C63.24,275.5 61,277.74 61,280.5ZM365,280.5L365,344.5C365,347.26 367.24,349.5 370,349.5C372.76,349.5 375,347.26 375,344.5L375,280.5C375,277.74 372.76,275.5 370,275.5C367.24,275.5 365,277.74 365,280.5ZM137,280.5L137,344.5C137,347.26 139.24,349.5 142,349.5C144.76,349.5 147,347.26 147,344.5L147,280.5C147,277.74 144.76,275.5 142,275.5C139.24,275.5 137,277.74 137,280.5ZM441,280.5L441,344.5C441,347.26 443.24,349.5 446,349.5C448.76,349.5 451,347.26 451,344.5L451,280.5C451,277.74 448.76,275.5 446,275.5C443.24,275.5 441,277.74 441,280.5ZM194,280.5L194,317.5C194,320.26 196.24,322.5 199,322.5C201.76,322.5 204,320.26 204,317.5L204,280.5C204,277.74 201.76,275.5 199,275.5C196.24,275.5 194,277.74 194,280.5ZM42,280.5L42,317.5C42,320.26 44.24,322.5 47,322.5C49.76,322.5 52,320.26 52,317.5L52,280.5C52,277.74 49.76,275.5 47,275.5C44.24,275.5 42,277.74 42,280.5ZM156,280.5L156,317.5C156,320.26 158.24,322.5 161,322.5C163.76,322.5 166,320.26 166,317.5L166,280.5C166,277.74 163.76,275.5 161,275.5C158.24,275.5 156,277.74 156,280.5ZM308,280.5L308,317.5C308,320.26 310.24,322.5 313,322.5C315.76,322.5 318,320.26 318,317.5L318,280.5C318,277.74 315.76,275.5 313,275.5C310.24,275.5 308,277.74 308,280.5ZM346,280.5L346,317.5C346,320.26 348.24,322.5 351,322.5C353.76,322.5 356,320.26 356,317.5L356,280.5C356,277.74 353.76,275.5 351,275.5C348.24,275.5 346,277.74 346,280.5ZM460,280.5L460,317.5C460,320.26 462.24,322.5 465,322.5C467.76,322.5 470,320.26 470,317.5L470,280.5C470,277.74 467.76,275.5 465,275.5C462.24,275.5 460,277.74 460,280.5ZM175,280.5L175,299C175,301.76 177.24,304 180,304C182.76,304 185,301.76 185,299L185,280.5C185,277.74 182.76,275.5 180,275.5C177.24,275.5 175,277.74 175,280.5ZM23,280.5L23,299C23,301.76 25.24,304 28,304C30.76,304 33,301.76 33,299L33,280.5C33,277.74 30.76,275.5 28,275.5C25.24,275.5 23,277.74 23,280.5ZM327,280.5L327,299C327,301.76 329.24,304 332,304C334.76,304 337,301.76 337,299L337,280.5C337,277.74 334.76,275.5 332,275.5C329.24,275.5 327,277.74 327,280.5ZM479,280.5L479,299C479,301.76 481.24,304 484,304C486.76,304 489,301.76 489,299L489,280.5C489,277.74 486.76,275.5 484,275.5C481.24,275.5 479,277.74 479,280.5ZM16,272L496,272C498.76,272 501,269.76 501,267C501,264.24 498.76,262 496,262L16,262C13.24,262 11,264.24 11,267C11,269.76 13.24,272 16,272ZM16,250L496,250C498.76,250 501,247.76 501,245C501,242.24 498.76,240 496,240L16,240C13.24,240 11,242.24 11,245C11,247.76 13.24,250 16,250ZM337,231.5L337,213C337,210.24 334.76,208 332,208C329.24,208 327,210.24 327,213L327,231.5C327,234.26 329.24,236.5 332,236.5C334.76,236.5 337,234.26 337,231.5ZM147,231.5L147,167.5C147,164.74 144.76,162.5 142,162.5C139.24,162.5 137,164.74 137,167.5L137,231.5C137,234.26 139.24,236.5 142,236.5C144.76,236.5 147,234.26 147,231.5ZM71,231.5L71,167.5C71,164.74 68.76,162.5 66,162.5C63.24,162.5 61,164.74 61,167.5L61,231.5C61,234.26 63.24,236.5 66,236.5C68.76,236.5 71,234.26 71,231.5ZM375,231.5L375,167.5C375,164.74 372.76,162.5 370,162.5C367.24,162.5 365,164.74 365,167.5L365,231.5C365,234.26 367.24,236.5 370,236.5C372.76,236.5 375,234.26 375,231.5ZM223,231.5L223,167.5C223,164.74 220.76,162.5 218,162.5C215.24,162.5 213,164.74 213,167.5L213,231.5C213,234.26 215.24,236.5 218,236.5C220.76,236.5 223,234.26 223,231.5ZM299,231.5L299,167.5C299,164.74 296.76,162.5 294,162.5C291.24,162.5 289,164.74 289,167.5L289,231.5C289,234.26 291.24,236.5 294,236.5C296.76,236.5 299,234.26 299,231.5ZM451,231.5L451,167.5C451,164.74 448.76,162.5 446,162.5C443.24,162.5 441,164.74 441,167.5L441,231.5C441,234.26 443.24,236.5 446,236.5C448.76,236.5 451,234.26 451,231.5ZM280,231.5L280,133.5C280,130.74 277.76,128.5 275,128.5C272.24,128.5 270,130.74 270,133.5L270,231.5C270,234.26 272.24,236.5 275,236.5C277.76,236.5 280,234.26 280,231.5ZM90,231.5L90,133.5C90,130.74 87.76,128.5 85,128.5C82.24,128.5 80,130.74 80,133.5L80,231.5C80,234.26 82.24,236.5 85,236.5C87.76,236.5 90,234.26 90,231.5ZM394,231.5L394,133.5C394,130.74 391.76,128.5 389,128.5C386.24,128.5 384,130.74 384,133.5L384,231.5C384,234.26 386.24,236.5 389,236.5C391.76,236.5 394,234.26 394,231.5ZM356,231.5L356,194.5C356,191.74 353.76,189.5 351,189.5C348.24,189.5 346,191.74 346,194.5L346,231.5C346,234.26 348.24,236.5 351,236.5C353.76,236.5 356,234.26 356,231.5ZM470,231.5L470,194.5C470,191.74 467.76,189.5 465,189.5C462.24,189.5 460,191.74 460,194.5L460,231.5C460,234.26 462.24,236.5 465,236.5C467.76,236.5 470,234.26 470,231.5ZM432,231.5L432,133.5C432,130.74 429.76,128.5 427,128.5C424.24,128.5 422,130.74 422,133.5L422,231.5C422,234.26 424.24,236.5 427,236.5C429.76,236.5 432,234.26 432,231.5ZM318,231.5L318,194.5C318,191.74 315.76,189.5 313,189.5C310.24,189.5 308,191.74 308,194.5L308,231.5C308,234.26 310.24,236.5 313,236.5C315.76,236.5 318,234.26 318,231.5ZM52,231.5L52,194.5C52,191.74 49.76,189.5 47,189.5C44.24,189.5 42,191.74 42,194.5L42,231.5C42,234.26 44.24,236.5 47,236.5C49.76,236.5 52,234.26 52,231.5ZM242,231.5L242,133.5C242,130.74 239.76,128.5 237,128.5C234.24,128.5 232,130.74 232,133.5L232,231.5C232,234.26 234.24,236.5 237,236.5C239.76,236.5 242,234.26 242,231.5ZM128,231.5L128,133.5C128,130.74 125.76,128.5 123,128.5C120.24,128.5 118,130.74 118,133.5L118,231.5C118,234.26 120.24,236.5 123,236.5C125.76,236.5 128,234.26 128,231.5ZM166,231.5L166,194.5C166,191.74 163.76,189.5 161,189.5C158.24,189.5 156,191.74 156,194.5L156,231.5C156,234.26 158.24,236.5 161,236.5C163.76,236.5 166,234.26 166,231.5ZM204,231.5L204,194.5C204,191.74 201.76,189.5 199,189.5C196.24,189.5 194,191.74 194,194.5L194,231.5C194,234.26 196.24,236.5 199,236.5C201.76,236.5 204,234.26 204,231.5ZM489,231.5L489,213C489,210.24 486.76,208 484,208C481.24,208 479,210.24 479,213L479,231.5C479,234.26 481.24,236.5 484,236.5C486.76,236.5 489,234.26 489,231.5ZM109,231.5L109,91.5C109,88.74 106.76,86.5 104,86.5C101.24,86.5 99,88.74 99,91.5L99,231.5C99,234.26 101.24,236.5 104,236.5C106.76,236.5 109,234.26 109,231.5ZM185,231.5L185,213C185,210.24 182.76,208 180,208C177.24,208 175,210.24 175,213L175,231.5C175,234.26 177.24,236.5 180,236.5C182.76,236.5 185,234.26 185,231.5ZM261,231.5L261,91.5C261,88.74 258.76,86.5 256,86.5C253.24,86.5 251,88.74 251,91.5L251,231.5C251,234.26 253.24,236.5 256,236.5C258.76,236.5 261,234.26 261,231.5ZM33,231.5L33,213C33,210.24 30.76,208 28,208C25.24,208 23,210.24 23,213L23,231.5C23,234.26 25.24,236.5 28,236.5C30.76,236.5 33,234.26 33,231.5ZM413,231.5L413,91.5C413,88.74 410.76,86.5 408,86.5C405.24,86.5 403,88.74 403,91.5L403,231.5C403,234.26 405.24,236.5 408,236.5C410.76,236.5 413,234.26 413,231.5Z" fill="#ffffff" class="color000 svgShape"></path></svg></g></svg>